<svg xmlns="http://www.w3.org/2000/svg" width="390" height="844" viewBox="0 0 390 844" fill="none">
<rect width="390" height="844" rx="0" fill="#efefef"/>
<rect x="150" y="14" width="90" height="20" rx="10" fill="#c0c0c0"/>
<rect x="24" y="56" width="200" height="26" rx="6" fill="#6c6c6c"/><rect x="24" y="92" width="130" height="14" rx="5" fill="#989898"/><rect x="20" y="130" width="350" height="200" rx="18" fill="#c0c0c0"/><rect x="40" y="350" width="240" height="24" rx="6" fill="#6c6c6c"/><rect x="40" y="392" width="310" height="12" rx="5" fill="#989898"/><rect x="40" y="418" width="270" height="12" rx="5" fill="#989898"/><rect x="40" y="444" width="270" height="12" rx="5" fill="#989898"/><rect x="40" y="470" width="310" height="12" rx="5" fill="#989898"/><rect x="40" y="496" width="270" height="12" rx="5" fill="#989898"/><rect x="40" y="522" width="270" height="12" rx="5" fill="#989898"/><rect x="40" y="548" width="310" height="12" rx="5" fill="#989898"/><rect x="20" y="600" width="350" height="60" rx="14" fill="#dbdbdb"/><rect x="20" y="676" width="350" height="60" rx="14" fill="#dbdbdb"/><rect x="110" y="760" width="170" height="44" rx="22" fill="#6c6c6c"/>
</svg>